<svg
  width="24"
  height="25"
  viewBox="-14 -8 90 90"
  fill="none"
  xmlns="http://www.w3.org/2000/svg"
>
<path
    fill-rule="evenodd"
    clip-rule="evenodd"
    d="M48.8092 8.59861L33.8445 17.2023L33.8403 17.1972V0L48.8092 8.59861Z"
    fill="#56D1F5"
  />
<path
    fill-rule="evenodd"
    clip-rule="evenodd"
    d="M31.8911 0.000366211V17.1679L16.9171 8.62768V8.59898L31.8911 0.000366211Z"
    fill="#56D1F5"
  />
<path
    fill-rule="evenodd"
    clip-rule="evenodd"
    d="M47.8389 27.7311L32.8649 36.3297V19.1324L47.8389 27.7311Z"
    fill="#56D1F5"
  />
<path
    fill-rule="evenodd"
    clip-rule="evenodd"
    d="M65.7977 38.2167L50.832 46.8204L50.8289 46.8153V29.618L65.7977 38.2167Z"
    fill="#56D1F5"
  />
<path
    fill-rule="evenodd"
    clip-rule="evenodd"
    d="M48.8796 29.6183V46.7858L33.9056 38.2456V38.2169L48.8796 29.6183Z"
    fill="#56D1F5"
  />
<path
    fill-rule="evenodd"
    clip-rule="evenodd"
    d="M31.8911 38.3377L16.9264 46.9415L16.9222 46.9364V29.7391L31.8911 38.3377Z"
    fill="#56D1F5"
  />
<path
    fill-rule="evenodd"
    clip-rule="evenodd"
    d="M14.974 29.739V46.9075L0 38.3674V38.3376L14.974 29.739Z"
    fill="#56D1F5"
  />
<path
    fill-rule="evenodd"
    clip-rule="evenodd"
    d="M32.8644 19.1327V36.3289L17.8904 27.7313L32.8644 19.1327Z"
    fill="#1DA1F2"
  />
<path
    fill-rule="evenodd"
    clip-rule="evenodd"
    d="M48.8795 46.7859V46.8146L33.9055 55.4142V38.2457L48.8795 46.7859Z"
    fill="#1DA1F2"
  />
<path
    fill-rule="evenodd"
    clip-rule="evenodd"
    d="M31.891 38.3378V55.534L16.9263 46.9415L31.891 38.3378Z"
    fill="#1DA1F2"
  />
<path
    fill-rule="evenodd"
    clip-rule="evenodd"
    d="M31.891 17.1679V17.1966L16.917 25.7962V8.62769L31.891 17.1679Z"
    fill="#1DA1F2"
  />
<path
    fill-rule="evenodd"
    clip-rule="evenodd"
    d="M49.853 48.7509V65.9481L34.879 57.3495L49.853 48.7509Z"
    fill="#1DA1F2"
  />
<path
    fill-rule="evenodd"
    clip-rule="evenodd"
    d="M15.9463 48.8713V66.0686L0.97229 57.4699L15.9463 48.8713Z"
    fill="#1DA1F2"
  />
<path
    fill-rule="evenodd"
    clip-rule="evenodd"
    d="M14.974 46.9071V46.9358L0 55.5344V38.3669L14.974 46.9071Z"
    fill="#0088CA"
  />
<path
    fill-rule="evenodd"
    clip-rule="evenodd"
    d="M48.8092 8.59863V25.7959L33.8445 17.2024L48.8092 8.59863Z"
    fill="#0088CA"
  />
<path
    fill-rule="evenodd"
    clip-rule="evenodd"
    d="M65.7978 38.2167V55.4139L50.832 46.8204L65.7978 38.2167Z"
    fill="#0088CA"
  />
<path
    fill-rule="evenodd"
    clip-rule="evenodd"
    d="M64.8263 57.3491L49.8534 65.9477V48.7505L64.8263 57.3491Z"
    fill="#296ACB"
  />
<path
    fill-rule="evenodd"
    clip-rule="evenodd"
    d="M30.9208 57.4702L15.9468 66.0688V48.8716L30.9208 57.4702Z"
    fill="#296ACB"
  />
</svg>
